<svg xmlns="http://www.w3.org/2000/svg" version="1.1" xmlns:xlink="http://www.w3.org/1999/xlink" xmlns:svgjs="http://svgjs.dev/svgjs" width="2000" height="252" viewBox="0 0 2000 252"><g transform="matrix(1,0,0,1,-1.212120965781196,0.45631956236105964)"><svg viewBox="0 0 396 50" data-background-color="#636365" preserveAspectRatio="xMidYMid meet" height="252" width="2000" xmlns="http://www.w3.org/2000/svg" xmlns:xlink="http://www.w3.org/1999/xlink"><g id="tight-bounds" transform="matrix(1,0,0,1,0.24000004877530046,-0.09053959570655934)"><svg viewBox="0 0 395.52 50.181079191413104" height="50.181079191413104" width="395.52"><g><svg viewBox="0 0 464.52331174779044 58.935783507972666" height="50.181079191413104" width="395.52"><g transform="matrix(1,0,0,1,0,8.145249384965833)"><svg viewBox="0 0 395.52 42.645284738041" height="42.645284738041" width="395.52"><g id="textblocktransform"><svg viewBox="0 0 395.52 42.645284738041" height="42.645284738041" width="395.52" id="textblock"><g><svg viewBox="0 0 395.52 42.645284738041" height="42.645284738041" width="395.52"><g transform="matrix(1,0,0,1,0,0)"><svg width="395.52" viewBox="2.4000000953674316 -34.5 329.2300109863281 35.5" height="42.645284738041" data-palette-color="#ffffff"><path d="M29.45-9.5L29.45-9.5Q29.45-4.8 25.65-1.93 21.85 0.95 15.75 0.95L15.75 0.95Q12.65 0.95 8.95 0.18 5.25-0.6 2.5-1.95L2.5-1.95 2.55-2.05 2.5-3.45Q2.5-8.45 3.55-12.05L3.55-12.05 8.05-12.05 12.1-4.6Q13.95-3.95 16.55-3.7L16.55-3.7Q19.15-4.85 19.15-7L19.15-7Q19.15-9.4 15.45-11.25L15.45-11.25 10.05-13.8 7.9-15Q2.4-18.35 2.4-23.65L2.4-23.65Q2.4-28.4 6.3-31.35 10.2-34.3 16.45-34.3L16.45-34.3Q19.25-34.3 22.5-33.73 25.75-33.15 27.95-32.25L27.95-32.25Q27.65-25.85 26.75-22.35L26.75-22.35 21.5-22.35 19.05-28.85Q16.9-29.65 14.35-29.8L14.35-29.8Q12.15-28.5 12.15-26.3L12.15-26.3Q12.15-25 13.35-24.03 14.55-23.05 19.95-20.65 25.35-18.25 27.4-15.6 29.45-12.95 29.45-9.5ZM69.15-33.3L69.45-31.7Q67.6-30.3 65.2-29.1L65.2-29.1 65.2-14.25Q65.15-6.05 61.3-2.53 57.45 1 51.3 1L51.3 1Q44 1 39.72-3.15 35.45-7.3 35.25-14.6L35.25-14.6 35.25-29.9 31.4-30.55 31.45-33.3 49.7-33.3 50-31.7Q48.15-30.3 45.75-29.1L45.75-29.1 45.75-12.85Q45.75-8.5 47.6-6.43 49.45-4.35 52.45-4.35L52.45-4.35Q54.8-4.35 56.4-5.7L56.4-5.7Q58.05-8 58.1-14.35L58.1-14.35 58.1-29.85 54.1-30.55 54.15-33.3 69.15-33.3ZM88.34-33.7L88.34-33.7Q94.2-33.7 98.34-31.28 102.5-28.85 104.59-25 106.7-21.15 106.7-16.95L106.7-16.95Q106.7-9.55 101.95-4.85 97.2-0.15 89.3 0L89.3 0 70.65 0 70.34-1.6Q72.2-3 74.59-4.2L74.59-4.2 74.59-29.95 71.05-30.55 71.09-33.3Q78.9-33.7 88.34-33.7ZM88.05-5L88.05-5Q91.55-5 93.7-8.22 95.84-11.45 95.84-16.35L95.84-16.35Q95.84-20.15 94.4-23.65 92.95-27.15 90.45-28.85L90.45-28.85 85.09-28.1 85.09-5.5Q86.59-5 88.05-5ZM144.29-3.5L148.74-2.75 148.69 0 129.84 0 129.54-1.6Q131.39-3 133.79-4.2L133.79-4.2 133.79-14.05 122.94-14.05 122.94-3.5 127.39-2.75 127.34 0 108.49 0 108.19-1.6Q110.04-3 112.44-4.2L112.44-4.2 112.44-29.9 108.59-30.55 108.64-33.3 126.89-33.3 127.19-31.7Q125.34-30.3 122.94-29.1L122.94-29.1 122.94-19.15 133.79-19.15 133.79-29.9 129.94-30.55 129.99-33.3 148.24-33.3 148.54-31.7Q146.69-30.3 144.29-29.1L144.29-29.1 144.29-3.5ZM174.09-11.35L179.84-10.9Q179.94-5.95 179.24 0L179.24 0 150.24 0 149.94-1.6Q151.79-3 154.19-4.2L154.19-4.2 154.19-29.9 150.39-30.55 150.44-33.3 179.69-33.3Q179.79-31.45 179.49-28.23 179.19-25 178.64-22.55L178.64-22.55 172.89-22.55 171.89-27.85 164.69-28.35 164.69-18.8 174.84-19.65 174.84-13.9 164.69-14.3 164.69-5.05 172.14-5.7 174.09-11.35ZM211.79-9.5L211.79-9.5Q211.79-4.8 207.99-1.93 204.19 0.95 198.09 0.95L198.09 0.95Q194.99 0.95 191.29 0.18 187.59-0.6 184.84-1.95L184.84-1.95 184.89-2.05 184.84-3.45Q184.84-8.45 185.89-12.05L185.89-12.05 190.39-12.05 194.44-4.6Q196.29-3.95 198.89-3.7L198.89-3.7Q201.49-4.85 201.49-7L201.49-7Q201.49-9.4 197.79-11.25L197.79-11.25 192.39-13.8 190.24-15Q184.74-18.35 184.74-23.65L184.74-23.65Q184.74-28.4 188.64-31.35 192.54-34.3 198.79-34.3L198.79-34.3Q201.59-34.3 204.84-33.73 208.09-33.15 210.29-32.25L210.29-32.25Q209.99-25.85 209.09-22.35L209.09-22.35 203.84-22.35 201.39-28.85Q199.24-29.65 196.69-29.8L196.69-29.8Q194.49-28.5 194.49-26.3L194.49-26.3Q194.49-25 195.69-24.03 196.89-23.05 202.29-20.65 207.69-18.25 209.74-15.6 211.79-12.95 211.79-9.5ZM250.63-3.5L255.09-2.75 255.03 0 236.19 0 235.88-1.6Q237.74-3 240.13-4.2L240.13-4.2 240.13-14.05 229.28-14.05 229.28-3.5 233.74-2.75 233.69 0 214.84 0 214.53-1.6Q216.38-3 218.78-4.2L218.78-4.2 218.78-29.9 214.94-30.55 214.99-33.3 233.24-33.3 233.53-31.7Q231.69-30.3 229.28-29.1L229.28-29.1 229.28-19.15 240.13-19.15 240.13-29.9 236.28-30.55 236.34-33.3 254.59-33.3 254.88-31.7Q253.03-30.3 250.63-29.1L250.63-29.1 250.63-3.5ZM293.88-33.3L294.18-31.7Q292.53-30.4 290.28-29.25L290.28-29.25 289.93 0 280.98 0.7 266.98-19.95 267.63-14 267.63-3.5 272.03-2.75 271.98 0 256.58 0 256.28-1.6Q258.13-3 260.53-4.2L260.53-4.2 260.53-29.8 256.78-30.55 256.83-33.3 270.13-33.3 270.13-33.25 283.93-12.35 283.23-18.5 283.23-29.7 278.33-30.55 278.38-33.3 293.88-33.3ZM328.08-3.35L331.63-2.75 331.58 0 313.48 0 313.18-1.6Q314.93-2.95 316.93-3.95L316.93-3.95 315.38-8.1 305.18-8.1 303.43-3.45 307.48-2.75 307.43 0 293.08 0 292.78-1.6Q294.48-2.95 296.98-4.2L296.98-4.2 307.33-29.9 306.48-32.25 315.58-34.5 328.08-3.35ZM306.88-12.7L313.68-12.7 310.28-21.95 306.88-12.7Z" opacity="1" transform="matrix(1,0,0,1,0,0)" fill="#ffffff" class="undefined-text-0" data-fill-palette-color="primary" id="text-0"></path></svg></g></svg></g></svg></g></svg></g><g transform="matrix(1,0,0,1,405.58752823981774,0)"><svg viewBox="0 0 58.935783507972666 58.935783507972666" height="58.935783507972666" width="58.935783507972666"><g data-palette-color="#ffffff"><rect width="16.109114158845863" height="58.935783507972666" fill="#ffffff" stroke="transparent" data-fill-palette-color="accent" x="0" fill-opacity="1"></rect><rect width="16.109114158845863" height="58.935783507972666" fill="#ffffff" stroke="transparent" data-fill-palette-color="accent" x="19.645261169324222" fill-opacity="0.75"></rect><rect width="16.109114158845863" height="58.935783507972666" fill="#ffffff" stroke="transparent" data-fill-palette-color="accent" x="39.290522338648444" fill-opacity="0.5"></rect></g></svg></g></svg></g><defs></defs></svg><rect width="395.52" height="50.181079191413104" fill="none" stroke="none" visibility="hidden"></rect></g></svg></g></svg>